<?xml version="1.0" encoding="UTF-8"?>
<svg id="g-scrolly-chart-Artboard_1-Interactions-img" data-name="Layer 1" xmlns="http://www.w3.org/2000/svg" baseProfile="tiny" version="1.2" viewBox="0 0 818 425">
  <path id="low-line" d="M28.698,182.94l25.192,3.168,25.192,2.715,25.192,2.263,25.192,1.81,25.192,1.508,25.192,1.358,25.192,1.659,25.192,1.961,25.192,2.263,25.192,2.564,25.192,2.866,25.192,2.866,25.192,1.81,25.192.603,25.192-.603,25.192-1.659,25.192-2.715,25.192-2.414,25.192,2.263,25.192,7.542,25.192,12.52,25.192,17.046,25.192,21.119,25.192,21.119,25.192,5.431,25.192-12.973,25.192-30.321,25.192-46.16,25.192-60.641" fill="none" stroke="#b6b8ba" stroke-miterlimit="10" stroke-width="3"/>
  <path id="mod-line" d="M28.698,196.667l25.192-10.107,25.192-8.297,25.192-6.788,25.192-5.28,25.192-3.922,25.192-2.414,25.192-.453,25.192,1.358,25.192,3.168,25.192,4.676,25.192,6.185,25.192,6.486,25.192,2.414,25.192-2.112,25.192-6.336,25.192-10.258,25.192-13.576,25.192-14.934,25.192-9.503,25.192-2.866,25.192,3.168,25.192,8.749,25.192,13.576,25.192,14.934,25.192,4.525,25.192-7.844,25.192-19.158,25.192-29.265,25.192-38.165" fill="none" stroke="#e11f27" stroke-miterlimit="10" stroke-width="3"/>
  <path id="high-line" d="M28.698,161.217l25.192,2.112,25.192,2.112,25.192,2.112,25.192,2.112,25.192,2.112,25.192,2.263,25.192,2.866,25.192,3.47,25.192,4.073,25.192,4.525,25.192,5.129,25.192,4.827,25.192,1.659,25.192-1.81,25.192-4.978,25.192-7.995,25.192-10.559,25.192-11.464,25.192-6.336,25.192-.151,25.192,5.431,25.192,10.559,25.192,15.236,25.192,16.141,25.192,3.771,25.192-10.861,25.192-24.287,25.192-36.354,25.192-47.065" fill="none" stroke="#f8a383" stroke-miterlimit="10" stroke-width="3"/>
  <path id="vhigh-line" d="M28.698,238.452l25.192-28.209,25.192-26.549,25.192-24.89,25.192-23.08,25.192-21.42,25.192-19.007,25.192-14.331,25.192-9.503,25.192-4.978,25.192-.905,25.192,2.564,25.192,4.978,25.192,3.62,25.192,1.508,25.192-.302,25.192-1.81,25.192-3.168,25.192-3.168,25.192,1.659,25.192,7.241,25.192,12.068,25.192,16.442,25.192,20.365,25.192,21.119,25.192,11.464h25.192l25.192-10.409,25.192-19.761,25.192-28.058" fill="none" stroke="#be262c" stroke-miterlimit="10" stroke-width="3"/>
<style>
#g-scrolly-chart-Artboard_1-Interactions-img rect, #g-scrolly-chart-Artboard_1-Interactions-img circle, #g-scrolly-chart-Artboard_1-Interactions-img path, #g-scrolly-chart-Artboard_1-Interactions-img line, #g-scrolly-chart-Artboard_1-Interactions-img polyline, #g-scrolly-chart-Artboard_1-Interactions-img polygon { vector-effect: non-scaling-stroke; }
</style>
</svg>
