<?xml version="1.0" encoding="UTF-8"?>
<svg id="g-scrolly-chart-Artboard_1-Interactions-img" data-name="Layer 1" xmlns="http://www.w3.org/2000/svg" baseProfile="tiny" version="1.2" viewBox="0 0 900 807">
  <g id="vhigh">
    <path id="vhigh-line" d="M20.275,443.397l28.319-31.71,28.319-29.845,28.319-27.98,28.319-25.945,28.319-24.079,28.319-21.366,28.319-16.11,28.319-10.683,28.319-5.596,28.319-1.017,28.319,2.883,28.319,5.596,28.319,4.07,28.319,1.696,28.319-.339,28.319-2.035,28.319-3.561,28.319-3.561,28.319,1.865,28.319,8.14,28.319,13.566,28.319,18.484,28.319,22.892,28.319,23.74,28.319,12.888h28.319l28.319-11.701,28.319-22.214,28.319-31.541" fill="none" stroke="#be262c" stroke-miterlimit="10" stroke-width="3"/>
  </g>
  <g id="high">
    <path id="high-line" d="M20.275,396.425l28.319-11.361,28.319-9.327,28.319-7.631,28.319-5.935,28.319-4.409,28.319-2.713,28.319-.509,28.319,1.526,28.319,3.561,28.319,5.257,28.319,6.953,28.319,7.292,28.319,2.713,28.319-2.374,28.319-7.122,28.319-11.531,28.319-15.262,28.319-16.788,28.319-10.683,28.319-3.222,28.319,3.561,28.319,9.835,28.319,15.262,28.319,16.788,28.319,5.087,28.319-8.818,28.319-21.536,28.319-32.897,28.319-42.902" fill="none" stroke="#e11f27" stroke-miterlimit="10" stroke-width="3"/>
  </g>
  <g id="mod">
    <path id="mod-line" d="M20.275,356.576l28.319,2.374,28.319,2.374,28.319,2.374,28.319,2.374,28.319,2.374,28.319,2.544,28.319,3.222,28.319,3.9,28.319,4.578,28.319,5.087,28.319,5.765,28.319,5.426,28.319,1.865,28.319-2.035,28.319-5.596,28.319-8.987,28.319-11.87,28.319-12.888,28.319-7.122,28.319-.17,28.319,6.105,28.319,11.87,28.319,17.127,28.319,18.144,28.319,4.239,28.319-12.209,28.319-27.301,28.319-40.867,28.319-52.907" fill="none" stroke="#f8a383" stroke-miterlimit="10" stroke-width="3"/>
  </g>
  <g id="low">
    <path id="low-line" d="M20.275,380.994l28.319,3.561,28.319,3.052,28.319,2.544,28.319,2.035,28.319,1.696,28.319,1.526,28.319,1.865,28.319,2.204,28.319,2.544,28.319,2.883,28.319,3.222,28.319,3.222,28.319,2.035,28.319.678,28.319-.678,28.319-1.865,28.319-3.052,28.319-2.713,28.319,2.544,28.319,8.479,28.319,14.075,28.319,19.162,28.319,23.74,28.319,23.74,28.319,6.105,28.319-14.583,28.319-34.084,28.319-51.89,28.319-68.169" fill="none" stroke="#b6b8ba" stroke-miterlimit="10" stroke-width="3"/>
  </g>
<style>
#g-scrolly-chart-Artboard_1-Interactions-img rect, #g-scrolly-chart-Artboard_1-Interactions-img circle, #g-scrolly-chart-Artboard_1-Interactions-img path, #g-scrolly-chart-Artboard_1-Interactions-img line, #g-scrolly-chart-Artboard_1-Interactions-img polyline, #g-scrolly-chart-Artboard_1-Interactions-img polygon { vector-effect: non-scaling-stroke; }
</style>
</svg>
